  0
SECTION
  2
HEADER
  9
$ACADVER
  1
AC1009
  9
$FILLMODE
 70
0
  9
$EXTMIN
 10
1.9473
 20
24.8073
 30
0.0000
  9
$EXTMAX
 10
33.2637
 20
76.0307
 30
0.0000
  0
ENDSEC
  0
SECTION
  2
TABLES
  0
TABLE
  2
LTYPE
 70
1
  0
LTYPE
  2
CONTINUOUS
 70
64
  3
Solid line
 72
65
 73
0
 40
0
  0
ENDTAB
  0
TABLE
  2
LAYER
 70
255
  0
LAYER
  2
90
 70
64
 62
214
  6
CONTINUOUS
  0
LAYER
  2
91
 70
64
 62
94
  6
CONTINUOUS
  0
LAYER
  2
92
 70
64
 62
174
  6
CONTINUOUS
  0
LAYER
  2
94
 70
64
 62
14
  6
CONTINUOUS
  0
LAYER
  2
95
 70
64
 62
251
  6
CONTINUOUS
  0
LAYER
  2
96
 70
64
 62
251
  6
CONTINUOUS
  0
LAYER
  2
97
 70
64
 62
251
  6
CONTINUOUS
  0
LAYER
  2
98
 70
64
 62
54
  6
CONTINUOUS
  0
ENDTAB
  0
ENDSEC
  0
SECTION
  2
BLOCKS
  0
BLOCK
  8
0
  2
RECT
 70
64
 10
0.0000
 20
0.0000
 30
0.0000
  3
RECT
  0
SOLID
  8
0
 10
-0.5000
 20
-0.5000
 30
0.0000
 11
0.5000
 21
-0.5000
 31
0.0000
 12
-0.5000
 22
0.5000
 32
0.0000
 13
0.5000
 23
0.5000
 33
0.0000
  0
ENDBLK
  8
0
  0
BLOCK
  8
0
  2
PIE
 70
64
 10
0.0000
 20
0.0000
 30
0.0000
  3
PIE
  0
CIRCLE
  8
0
 10
0.0000
 20
0.0000
 30
0.0000
 40
0.5000
  0
ENDBLK
  8
0
  0
ENDSEC
  0
SECTION
  2
ENTITIES
  0
LINE
  8
94
 10
5.7150
 20
27.9400
 30
0.0000
 11
9.5250
 21
27.9400
 31
0.0000
  0
LINE
  8
96
 10
6.2409
 20
26.8320
 30
0.0000
 11
5.9697
 21
27.1032
 31
0.0000
  0
LINE
  8
96
 10
5.9697
 20
27.1032
 30
0.0000
 11
5.4274
 21
27.1032
 31
0.0000
  0
LINE
  8
96
 10
5.4274
 20
27.1032
 30
0.0000
 11
5.1562
 21
26.8320
 31
0.0000
  0
LINE
  8
96
 10
5.1562
 20
26.8320
 30
0.0000
 11
5.1562
 21
25.7474
 31
0.0000
  0
LINE
  8
96
 10
5.1562
 20
25.7474
 30
0.0000
 11
5.4274
 21
25.4762
 31
0.0000
  0
LINE
  8
96
 10
5.4274
 20
25.4762
 30
0.0000
 11
5.9697
 21
25.4762
 31
0.0000
  0
LINE
  8
96
 10
5.9697
 20
25.4762
 30
0.0000
 11
6.2409
 21
25.7474
 31
0.0000
  0
LINE
  8
96
 10
6.2409
 20
25.7474
 30
0.0000
 11
6.2409
 21
26.2897
 31
0.0000
  0
LINE
  8
96
 10
6.2409
 20
26.2897
 30
0.0000
 11
5.6985
 21
26.2897
 31
0.0000
  0
LINE
  8
96
 10
6.7934
 20
25.4762
 30
0.0000
 11
6.7934
 21
27.1032
 31
0.0000
  0
LINE
  8
96
 10
6.7934
 20
27.1032
 30
0.0000
 11
7.8780
 21
25.4762
 31
0.0000
  0
LINE
  8
96
 10
7.8780
 20
25.4762
 30
0.0000
 11
7.8780
 21
27.1032
 31
0.0000
  0
LINE
  8
96
 10
8.4305
 20
27.1032
 30
0.0000
 11
8.4305
 21
25.4762
 31
0.0000
  0
LINE
  8
96
 10
8.4305
 20
25.4762
 30
0.0000
 11
9.2440
 21
25.4762
 31
0.0000
  0
LINE
  8
96
 10
9.2440
 20
25.4762
 30
0.0000
 11
9.5152
 21
25.7474
 31
0.0000
  0
LINE
  8
96
 10
9.5152
 20
25.7474
 30
0.0000
 11
9.5152
 21
26.8320
 31
0.0000
  0
LINE
  8
96
 10
9.5152
 20
26.8320
 30
0.0000
 11
9.2440
 21
27.1032
 31
0.0000
  0
LINE
  8
96
 10
9.2440
 20
27.1032
 30
0.0000
 11
8.4305
 21
27.1032
 31
0.0000
  0
LINE
  8
94
 10
7.6200
 20
30.4800
 30
0.0000
 11
7.6200
 21
27.9400
 31
0.0000
  0
LINE
  8
94
 10
8.5090
 20
72.3900
 30
0.0000
 11
7.6200
 21
73.7870
 31
0.0000
  0
LINE
  8
94
 10
7.6200
 20
73.7870
 30
0.0000
 11
6.7310
 21
72.3900
 31
0.0000
  0
LINE
  8
94
 10
6.7310
 20
72.3900
 30
0.0000
 11
8.5090
 21
72.3900
 31
0.0000
  0
LINE
  8
94
 10
7.6200
 20
71.1200
 30
0.0000
 11
7.6200
 21
73.6600
 31
0.0000
  0
LINE
  8
96
 10
2.6162
 20
75.3632
 30
0.0000
 11
2.6162
 21
74.2785
 31
0.0000
  0
LINE
  8
96
 10
2.6162
 20
74.2785
 30
0.0000
 11
3.1585
 21
73.7362
 31
0.0000
  0
LINE
  8
96
 10
3.1585
 20
73.7362
 30
0.0000
 11
3.7009
 21
74.2785
 31
0.0000
  0
LINE
  8
96
 10
3.7009
 20
74.2785
 30
0.0000
 11
3.7009
 21
75.3632
 31
0.0000
  0
LINE
  8
96
 10
4.2534
 20
74.5497
 30
0.0000
 11
5.3380
 21
74.5497
 31
0.0000
  0
LINE
  8
96
 10
4.7957
 20
75.0920
 30
0.0000
 11
4.7957
 21
74.0074
 31
0.0000
  0
LINE
  8
94
 10
6.7310
 20
63.5000
 30
0.0000
 11
6.7310
 21
58.4200
 31
0.0000
  0
LINE
  8
94
 10
8.5090
 20
58.4200
 30
0.0000
 11
8.5090
 21
63.5000
 31
0.0000
  0
LINE
  8
94
 10
6.7310
 20
58.4200
 30
0.0000
 11
8.5090
 21
58.4200
 31
0.0000
  0
LINE
  8
94
 10
6.7310
 20
63.5000
 30
0.0000
 11
8.5090
 21
63.5000
 31
0.0000
  0
LINE
  8
95
 10
10.8204
 20
61.5719
 30
0.0000
 11
9.1934
 21
61.5719
 31
0.0000
  0
LINE
  8
95
 10
9.1934
 20
61.5719
 30
0.0000
 11
9.1934
 21
62.3854
 31
0.0000
  0
LINE
  8
95
 10
9.1934
 20
62.3854
 30
0.0000
 11
9.4646
 21
62.6565
 31
0.0000
  0
LINE
  8
95
 10
9.4646
 20
62.6565
 30
0.0000
 11
10.0069
 21
62.6565
 31
0.0000
  0
LINE
  8
95
 10
10.0069
 20
62.6565
 30
0.0000
 11
10.2781
 21
62.3854
 31
0.0000
  0
LINE
  8
95
 10
10.2781
 20
62.3854
 30
0.0000
 11
10.2781
 21
61.5719
 31
0.0000
  0
LINE
  8
95
 10
10.2781
 20
62.1142
 30
0.0000
 11
10.8204
 21
62.6565
 31
0.0000
  0
LINE
  8
95
 10
9.7357
 20
63.2090
 30
0.0000
 11
9.1934
 21
63.7514
 31
0.0000
  0
LINE
  8
95
 10
9.1934
 20
63.7514
 30
0.0000
 11
10.8204
 21
63.7514
 31
0.0000
  0
LINE
  8
95
 10
10.8204
 20
63.2090
 30
0.0000
 11
10.8204
 21
64.2937
 31
0.0000
  0
LINE
  8
94
 10
7.6200
 20
66.0400
 30
0.0000
 11
7.6200
 21
63.5000
 31
0.0000
  0
LINE
  8
94
 10
7.6200
 20
55.8800
 30
0.0000
 11
7.6200
 21
58.4200
 31
0.0000
  0
LINE
  8
94
 10
6.7310
 20
43.1800
 30
0.0000
 11
6.7310
 21
38.1000
 31
0.0000
  0
LINE
  8
94
 10
8.5090
 20
38.1000
 30
0.0000
 11
8.5090
 21
43.1800
 31
0.0000
  0
LINE
  8
94
 10
6.7310
 20
38.1000
 30
0.0000
 11
8.5090
 21
38.1000
 31
0.0000
  0
LINE
  8
94
 10
6.7310
 20
43.1800
 30
0.0000
 11
8.5090
 21
43.1800
 31
0.0000
  0
LINE
  8
95
 10
10.8204
 20
41.2519
 30
0.0000
 11
9.1934
 21
41.2519
 31
0.0000
  0
LINE
  8
95
 10
9.1934
 20
41.2519
 30
0.0000
 11
9.1934
 21
42.0654
 31
0.0000
  0
LINE
  8
95
 10
9.1934
 20
42.0654
 30
0.0000
 11
9.4646
 21
42.3365
 31
0.0000
  0
LINE
  8
95
 10
9.4646
 20
42.3365
 30
0.0000
 11
10.0069
 21
42.3365
 31
0.0000
  0
LINE
  8
95
 10
10.0069
 20
42.3365
 30
0.0000
 11
10.2781
 21
42.0654
 31
0.0000
  0
LINE
  8
95
 10
10.2781
 20
42.0654
 30
0.0000
 11
10.2781
 21
41.2519
 31
0.0000
  0
LINE
  8
95
 10
10.2781
 20
41.7942
 30
0.0000
 11
10.8204
 21
42.3365
 31
0.0000
  0
LINE
  8
95
 10
10.8204
 20
43.9737
 30
0.0000
 11
10.8204
 21
42.8890
 31
0.0000
  0
LINE
  8
95
 10
10.8204
 20
42.8890
 30
0.0000
 11
9.7357
 21
43.9737
 31
0.0000
  0
LINE
  8
95
 10
9.7357
 20
43.9737
 30
0.0000
 11
9.4646
 21
43.9737
 31
0.0000
  0
LINE
  8
95
 10
9.4646
 20
43.9737
 30
0.0000
 11
9.1934
 21
43.7025
 31
0.0000
  0
LINE
  8
95
 10
9.1934
 20
43.7025
 30
0.0000
 11
9.1934
 21
43.1602
 31
0.0000
  0
LINE
  8
95
 10
9.1934
 20
43.1602
 30
0.0000
 11
9.4646
 21
42.8890
 31
0.0000
  0
LINE
  8
94
 10
7.6200
 20
45.7200
 30
0.0000
 11
7.6200
 21
43.1800
 31
0.0000
  0
LINE
  8
94
 10
7.6200
 20
35.5600
 30
0.0000
 11
7.6200
 21
38.1000
 31
0.0000
  0
LINE
  8
91
 10
7.6200
 20
30.4800
 30
0.0000
 11
7.6200
 21
35.5600
 31
0.0000
  0
LINE
  8
91
 10
7.6200
 20
71.1200
 30
0.0000
 11
7.6200
 21
66.0400
 31
0.0000
  0
LINE
  8
91
 10
7.6200
 20
55.8800
 30
0.0000
 11
7.6200
 21
50.8000
 31
0.0000
  0
LINE
  8
91
 10
7.6200
 20
50.8000
 30
0.0000
 11
7.6200
 21
45.7200
 31
0.0000
  0
LINE
  8
91
 10
7.6200
 20
50.8000
 30
0.0000
 11
22.8600
 21
50.8000
 31
0.0000
  0
CIRCLE
  8
91
 10
7.6200
 20
50.8000
 30
0.0000
 40
0.5080
  0
LINE
  8
95
 10
22.8600
 20
50.8000
 30
0.0000
 11
24.3840
 21
52.3240
 31
0.0000
  0
LINE
  8
95
 10
24.3840
 20
52.3240
 30
0.0000
 11
33.0097
 21
52.3240
 31
0.0000
  0
LINE
  8
95
 10
22.8600
 20
50.8000
 30
0.0000
 11
24.3840
 21
49.2760
 31
0.0000
  0
LINE
  8
95
 10
24.3840
 20
49.2760
 30
0.0000
 11
33.0097
 21
49.2760
 31
0.0000
  0
LINE
  8
95
 10
33.0097
 20
52.3240
 30
0.0000
 11
33.0097
 21
49.2760
 31
0.0000
  0
LINE
  8
95
 10
24.4602
 20
51.6142
 30
0.0000
 11
24.4602
 21
50.5295
 31
0.0000
  0
LINE
  8
95
 10
24.4602
 20
50.5295
 30
0.0000
 11
25.0025
 21
49.9872
 31
0.0000
  0
LINE
  8
95
 10
25.0025
 20
49.9872
 30
0.0000
 11
25.5449
 21
50.5295
 31
0.0000
  0
LINE
  8
95
 10
25.5449
 20
50.5295
 30
0.0000
 11
25.5449
 21
51.6142
 31
0.0000
  0
LINE
  8
95
 10
26.0974
 20
49.7160
 30
0.0000
 11
27.1820
 21
49.7160
 31
0.0000
  0
LINE
  8
95
 10
28.5480
 20
51.6142
 30
0.0000
 11
28.0057
 21
51.6142
 31
0.0000
  0
LINE
  8
95
 10
28.0057
 20
51.6142
 30
0.0000
 11
27.7345
 21
51.3430
 31
0.0000
  0
LINE
  8
95
 10
27.7345
 20
51.3430
 30
0.0000
 11
27.7345
 21
50.2584
 31
0.0000
  0
LINE
  8
95
 10
27.7345
 20
50.2584
 30
0.0000
 11
28.0057
 21
49.9872
 31
0.0000
  0
LINE
  8
95
 10
28.0057
 20
49.9872
 30
0.0000
 11
28.5480
 21
49.9872
 31
0.0000
  0
LINE
  8
95
 10
28.5480
 20
49.9872
 30
0.0000
 11
28.8192
 21
50.2584
 31
0.0000
  0
LINE
  8
95
 10
28.8192
 20
50.2584
 30
0.0000
 11
28.8192
 21
51.3430
 31
0.0000
  0
LINE
  8
95
 10
28.8192
 20
51.3430
 30
0.0000
 11
28.5480
 21
51.6142
 31
0.0000
  0
LINE
  8
95
 10
29.3717
 20
51.6142
 30
0.0000
 11
29.3717
 21
50.2584
 31
0.0000
  0
LINE
  8
95
 10
29.3717
 20
50.2584
 30
0.0000
 11
29.6428
 21
49.9872
 31
0.0000
  0
LINE
  8
95
 10
29.6428
 20
49.9872
 30
0.0000
 11
30.1852
 21
49.9872
 31
0.0000
  0
LINE
  8
95
 10
30.1852
 20
49.9872
 30
0.0000
 11
30.4563
 21
50.2584
 31
0.0000
  0
LINE
  8
95
 10
30.4563
 20
50.2584
 30
0.0000
 11
30.4563
 21
51.6142
 31
0.0000
  0
LINE
  8
95
 10
31.5512
 20
49.9872
 30
0.0000
 11
31.5512
 21
51.6142
 31
0.0000
  0
LINE
  8
95
 10
31.0088
 20
51.6142
 30
0.0000
 11
32.0935
 21
51.6142
 31
0.0000
  0
ENDSEC
  0
EOF
