<?xml version="1.0" encoding="UTF-8" ?>
 <svg viewBox="2.6162 -75.3632  35 50" xmlns="http://www.w3.org/2000/svg" version="1.0" overflow="visible">
  <defs>
   <g id="RECT">
    <polygon points="-0.5,-0.5 0.5,-0.5 0.5,0.5 -0.5,0.5 "/>
   </g>
   <g id="PIE">
    <circle cx="0" cy="0" r="0.5"/>
   </g>
  </defs>
  <g id="draft" transform="matrix(1 0 0 -1 0 0)" stroke-width="0.1">
   <g id="ID_91" color="rgb(0,0,0)" stroke="currentColor" fill="none" stroke-width="0.1">
    <circle cx="7.62" cy="50.8" r="0.508"/>
    <line x1="7.62" y1="30.48" x2="7.62" y2="35.56"/>
    <line x1="7.62" y1="71.12" x2="7.62" y2="66.04"/>
    <line x1="7.62" y1="55.88" x2="7.62" y2="50.8"/>
    <line x1="7.62" y1="50.8" x2="7.62" y2="45.72"/>
    <line x1="7.62" y1="50.8" x2="22.86" y2="50.8"/>
   </g>
   <g id="ID_90" color="rgb(0,0,0)" stroke="currentColor" fill="none" stroke-width="0.1"/>
   <g id="ID_98" color="rgb(127,127,0)" stroke="currentColor" fill="none" stroke-width="0.1"/>
   <g id="ID_97" color="rgb(0,0,0)" stroke="currentColor" fill="none" stroke-width="0.1"/>
   <g id="ID_96" color="rgb(0,0,0)" stroke="currentColor" fill="none" stroke-width="0.1">
    <line x1="6.2409" y1="26.832" x2="5.9697" y2="27.1032"/>
    <line x1="5.9697" y1="27.1032" x2="5.4274" y2="27.1032"/>
    <line x1="5.4274" y1="27.1032" x2="5.1562" y2="26.832"/>
    <line x1="5.1562" y1="26.832" x2="5.1562" y2="25.7474"/>
    <line x1="5.1562" y1="25.7474" x2="5.4274" y2="25.4762"/>
    <line x1="5.4274" y1="25.4762" x2="5.9697" y2="25.4762"/>
    <line x1="5.9697" y1="25.4762" x2="6.2409" y2="25.7474"/>
    <line x1="6.2409" y1="25.7474" x2="6.2409" y2="26.2897"/>
    <line x1="6.2409" y1="26.2897" x2="5.6985" y2="26.2897"/>
    <line x1="6.7934" y1="25.4762" x2="6.7934" y2="27.1032"/>
    <line x1="6.7934" y1="27.1032" x2="7.878" y2="25.4762"/>
    <line x1="7.878" y1="25.4762" x2="7.878" y2="27.1032"/>
    <line x1="8.4305" y1="27.1032" x2="8.4305" y2="25.4762"/>
    <line x1="8.4305" y1="25.4762" x2="9.244" y2="25.4762"/>
    <line x1="9.244" y1="25.4762" x2="9.5152" y2="25.7474"/>
    <line x1="9.5152" y1="25.7474" x2="9.5152" y2="26.832"/>
    <line x1="9.5152" y1="26.832" x2="9.244" y2="27.1032"/>
    <line x1="9.244" y1="27.1032" x2="8.4305" y2="27.1032"/>
    <line x1="2.6162" y1="75.3632" x2="2.6162" y2="74.2785"/>
    <line x1="2.6162" y1="74.2785" x2="3.1585" y2="73.7362"/>
    <line x1="3.1585" y1="73.7362" x2="3.7009" y2="74.2785"/>
    <line x1="3.7009" y1="74.2785" x2="3.7009" y2="75.3632"/>
    <line x1="4.2534" y1="74.5497" x2="5.338" y2="74.5497"/>
    <line x1="4.7957" y1="75.092" x2="4.7957" y2="74.0074"/>
   </g>
   <g id="ID_95" color="rgb(0,0,0)" stroke="currentColor" fill="none" stroke-width="0.1">
    <line x1="10.8204" y1="61.5719" x2="9.1934" y2="61.5719"/>
    <line x1="9.1934" y1="61.5719" x2="9.1934" y2="62.3854"/>
    <line x1="9.1934" y1="62.3854" x2="9.4646" y2="62.6565"/>
    <line x1="9.4646" y1="62.6565" x2="10.0069" y2="62.6565"/>
    <line x1="10.0069" y1="62.6565" x2="10.2781" y2="62.3854"/>
    <line x1="10.2781" y1="62.3854" x2="10.2781" y2="61.5719"/>
    <line x1="10.2781" y1="62.1142" x2="10.8204" y2="62.6565"/>
    <line x1="9.7357" y1="63.209" x2="9.1934" y2="63.7514"/>
    <line x1="9.1934" y1="63.7514" x2="10.8204" y2="63.7514"/>
    <line x1="10.8204" y1="63.209" x2="10.8204" y2="64.2937"/>
    <line x1="10.8204" y1="41.2519" x2="9.1934" y2="41.2519"/>
    <line x1="9.1934" y1="41.2519" x2="9.1934" y2="42.0654"/>
    <line x1="9.1934" y1="42.0654" x2="9.4646" y2="42.3365"/>
    <line x1="9.4646" y1="42.3365" x2="10.0069" y2="42.3365"/>
    <line x1="10.0069" y1="42.3365" x2="10.2781" y2="42.0654"/>
    <line x1="10.2781" y1="42.0654" x2="10.2781" y2="41.2519"/>
    <line x1="10.2781" y1="41.7942" x2="10.8204" y2="42.3365"/>
    <line x1="10.8204" y1="43.9737" x2="10.8204" y2="42.889"/>
    <line x1="10.8204" y1="42.889" x2="9.7357" y2="43.9737"/>
    <line x1="9.7357" y1="43.9737" x2="9.4646" y2="43.9737"/>
    <line x1="9.4646" y1="43.9737" x2="9.1934" y2="43.7025"/>
    <line x1="9.1934" y1="43.7025" x2="9.1934" y2="43.1602"/>
    <line x1="9.1934" y1="43.1602" x2="9.4646" y2="42.889"/>
    <line x1="22.86" y1="50.8" x2="24.384" y2="52.324"/>
    <line x1="24.384" y1="52.324" x2="33.0097" y2="52.324"/>
    <line x1="22.86" y1="50.8" x2="24.384" y2="49.276"/>
    <line x1="24.384" y1="49.276" x2="33.0097" y2="49.276"/>
    <line x1="33.0097" y1="52.324" x2="33.0097" y2="49.276"/>
    <line x1="24.4602" y1="51.6142" x2="24.4602" y2="50.5295"/>
    <line x1="24.4602" y1="50.5295" x2="25.0025" y2="49.9872"/>
    <line x1="25.0025" y1="49.9872" x2="25.5449" y2="50.5295"/>
    <line x1="25.5449" y1="50.5295" x2="25.5449" y2="51.6142"/>
    <line x1="26.0974" y1="49.716" x2="27.182" y2="49.716"/>
    <line x1="28.548" y1="51.6142" x2="28.0057" y2="51.6142"/>
    <line x1="28.0057" y1="51.6142" x2="27.7345" y2="51.343"/>
    <line x1="27.7345" y1="51.343" x2="27.7345" y2="50.2584"/>
    <line x1="27.7345" y1="50.2584" x2="28.0057" y2="49.9872"/>
    <line x1="28.0057" y1="49.9872" x2="28.548" y2="49.9872"/>
    <line x1="28.548" y1="49.9872" x2="28.8192" y2="50.2584"/>
    <line x1="28.8192" y1="50.2584" x2="28.8192" y2="51.343"/>
    <line x1="28.8192" y1="51.343" x2="28.548" y2="51.6142"/>
    <line x1="29.3717" y1="51.6142" x2="29.3717" y2="50.2584"/>
    <line x1="29.3717" y1="50.2584" x2="29.6428" y2="49.9872"/>
    <line x1="29.6428" y1="49.9872" x2="30.1852" y2="49.9872"/>
    <line x1="30.1852" y1="49.9872" x2="30.4563" y2="50.2584"/>
    <line x1="30.4563" y1="50.2584" x2="30.4563" y2="51.6142"/>
    <line x1="31.5512" y1="49.9872" x2="31.5512" y2="51.6142"/>
    <line x1="31.0088" y1="51.6142" x2="32.0935" y2="51.6142"/>
   </g>
   <g id="ID_0" color="rgb(0,0,0)" stroke="currentColor" fill="none" stroke-width="0.1"/>
   <g id="ID_94" color="rgb(127,0,0)" stroke="currentColor" fill="none" stroke-width="0.1">
    <line x1="5.715" y1="27.94" x2="9.525" y2="27.94"/>
    <line x1="7.62" y1="30.48" x2="7.62" y2="27.94"/>
    <line x1="8.509" y1="72.39" x2="7.62" y2="73.787"/>
    <line x1="7.62" y1="73.787" x2="6.731" y2="72.39"/>
    <line x1="6.731" y1="72.39" x2="8.509" y2="72.39"/>
    <line x1="7.62" y1="71.12" x2="7.62" y2="73.66"/>
    <line x1="6.731" y1="63.5" x2="6.731" y2="58.42"/>
    <line x1="8.509" y1="58.42" x2="8.509" y2="63.5"/>
    <line x1="6.731" y1="58.42" x2="8.509" y2="58.42"/>
    <line x1="6.731" y1="63.5" x2="8.509" y2="63.5"/>
    <line x1="7.62" y1="66.04" x2="7.62" y2="63.5"/>
    <line x1="7.62" y1="55.88" x2="7.62" y2="58.42"/>
    <line x1="6.731" y1="43.18" x2="6.731" y2="38.1"/>
    <line x1="8.509" y1="38.1" x2="8.509" y2="43.18"/>
    <line x1="6.731" y1="38.1" x2="8.509" y2="38.1"/>
    <line x1="6.731" y1="43.18" x2="8.509" y2="43.18"/>
    <line x1="7.62" y1="45.72" x2="7.62" y2="43.18"/>
    <line x1="7.62" y1="35.56" x2="7.62" y2="38.1"/>
   </g>
   <g id="ID_92" color="rgb(0,0,0)" stroke="currentColor" fill="none" stroke-width="0.1"/>
  </g>
 </svg>