<svg xmlns="http://www.w3.org/2000/svg" width="114.6" height="115.8" viewBox="0.7 7.9 114.6 115.8"><path d="M56 7.9L.7 103.6h110.6M10.4 119.9c.1 0 .2 0 .3.1s.1.2.1.3v2.8c0 .1 0 .2-.1.3-.1.1-.2.1-.3.1H1.1c-.3 0-.4-.1-.4-.4v-14.2c0-.3.1-.4.4-.4h3c.3 0 .4.1.4.4v10.6c0 .1 0 .2.1.3.1.1.2.1.3.1h5.5M27.6 108.6c.1.1.1.2.1.3V121.1c0 .1-.1.2-.1.3l-2 2c-.1.1-.2.1-.4.1H17.6c-.1 0-.3-.1-.4-.1l-2-2c-.1-.1-.1-.2-.1-.4V108.8c0-.1 0-.2.1-.3.1-.1.2-.1.3-.1h3c.1 0 .2 0 .3.1.1.1.1.2.1.3v10.6c0 .1 0 .2.1.3.1.1.2.1.3.1h4.3c.1 0 .2 0 .3-.1.1-.1.1-.2.1-.3v-10.6c0-.1 0-.2.1-.3.1-.1.2-.1.3-.1h3c0 .1.1.2.2.2M43 119.9c.1 0 .2 0 .3.1s.1.2.1.3v2.8c0 .1 0 .2-.1.3-.1.1-.2.1-.3.1h-9.3c-.3 0-.4-.1-.4-.4v-14.2c0-.3.1-.4.4-.4h3c.3 0 .4.1.4.4v10.6c0 .1 0 .2.1.3.1.1.2.1.3.1H43M59.1 111.6c0 .1 0 .2-.1.4-.1.1-.1.2-.2.3l-7 7.9h6.9c.1 0 .2 0 .3.1s.1.2.1.3v2.6c0 .1 0 .2-.1.3-.1.1-.2.1-.3.1H48c-.3 0-.4-.1-.4-.4v-2.7c0-.1 0-.2.1-.4 0-.1.1-.2.2-.3l7.1-7.9h-6.9c-.1 0-.2 0-.3-.1s-.1-.2-.1-.3v-2.6c0-.1 0-.2.1-.3.1-.1.2-.1.3-.1h10.6c.1 0 .2 0 .3.1s.1.2.1.3v2.7M77.1 110.7c0 .1.1.2.1.4s.1.3.1.4v2.4c0 .1 0 .2-.1.4 0 .1-.1.2-.2.3l-.9 1.2c-.1.1-.1.2-.1.3 0 .1 0 .2.1.3l.9 1.1c.1.1.1.2.2.3.1.1.1.3.1.4v2.5c0 .1 0 .2-.1.4 0 .1-.1.3-.1.4l-2 2c-.1.1-.2.1-.4.1H65c-.3 0-.4-.1-.4-.4V109c0-.1 0-.2.1-.3.1-.1.2-.1.3-.1h9.3c.1 0 .2 0 .4.1.2 0 .3.1.4.1l2 1.9m-9 3.8h5.8v-2.7h-5.8v2.7zm0 5.8h5.8v-2.9h-5.8v2.9zM95.2 110.7c0 .1.1.2.1.4 0 .1.1.3.1.4v9.3c0 .1 0 .2-.1.4 0 .1-.1.3-.1.4l-2 2c-.1.1-.2.1-.4.1H85.2c-.1 0-.3-.1-.4-.1l-2-2c-.1-.1-.1-.2-.1-.4V111.5v-.4c0-.1.1-.3.1-.4l2-2c.1 0 .2-.1.4-.1.1 0 .3-.1.4-.1h6.8c.1 0 .2 0 .4.1.2 0 .3.1.4.1l2 2m-8.7 9.2h5.1v-7.8h-5.1v7.8zM111.3 111.8c0 .1 0 .2-.1.3-.1.1-.2.1-.3.1h-3.1c-.1 0-.2 0-.3.1-.1.1-.1.2-.1.3v10.6c0 .1 0 .2-.1.3-.1.1-.2.1-.3.1h-3c-.1 0-.2 0-.3-.1-.1-.1-.1-.2-.1-.3v-10.6c0-.1 0-.2-.1-.3-.1-.1-.2-.1-.3-.1h-3.1c-.1 0-.2 0-.3-.1-.1-.1-.1-.2-.1-.3V109c0-.3.1-.4.4-.4h10.7c.1 0 .2 0 .3.1.1.1.1.2.1.3v2.8"/><path fill="#C1D82F" d="M56 13.3l13 22.6H42.9M5.5 100.8l13-22.5 13 22.5M34.7 100.8L20.1 75.6l21.2-36.9h29.3l21.3 36.7-14.7 25.4M80.3 100.8l13.1-22.6 13.1 22.6"/><path d="M56.5 97.8c-.2.2-.4.2-.5.2s-.4-.1-.5-.2c-.2-.1-.3-.6-.5-1.1s-.5-1.1-.8-1.4c-.4-.4-.8-.6-1.3-.7s-.9 0-1.4.3-.8.7-1.2 1.2c-.3.4-.6.8-.8.9s-.4.1-.6.1c-.2 0-.3-.2-.5-.3-.1-.2-.1-.6-.2-1.2-.1-.5-.2-1.1-.4-1.6-.3-.5-.6-.8-1.1-1s-.9-.2-1.4-.1-1 .5-1.5.8c-.4.3-.8.7-1 .7s-.4 0-.6-.1c-.2-.1-.3-.2-.4-.4-.1-.2 0-.7.1-1.2s.1-1.2 0-1.7-.4-.9-.8-1.2c-.4-.3-.8-.4-1.4-.4-.5 0-1.1.2-1.6.5-.5.2-1 .5-1.2.5s-.4-.1-.5-.2-.2-.3-.2-.5.2-.6.5-1.2c.2-.5.5-1.1.5-1.6s-.2-1-.4-1.4c-.3-.4-.7-.6-1.2-.8-.5-.1-1.1-.1-1.7 0-.5.1-1 .2-1.2.1s-.3-.2-.4-.4c-.1-.2-.1-.4-.1-.6s.4-.6.7-1 .7-.9.8-1.5c.1-.5.1-1-.1-1.4-.2-.4-.5-.8-1-1.1-.5-.3-1.1-.4-1.6-.4-.5-.1-1-.1-1.2-.2s-.3-.3-.3-.5 0-.4.1-.6.5-.4.9-.8c.4-.3.9-.7 1.2-1.2.3-.5.4-.9.3-1.4s-.3-.9-.6-1.3c-.4-.4-.9-.6-1.4-.8-.5-.2-.9-.4-1.1-.5-.1-.2-.2-.3-.2-.5s.1-.4.2-.5c.1-.2.6-.3 1.1-.5s1.1-.5 1.4-.8c.4-.4.6-.8.6-1.3.1-.5 0-.9-.3-1.4s-.7-.8-1.2-1.2c-.4-.3-.8-.6-.9-.8-.1-.2-.1-.4-.1-.6 0-.2.2-.3.3-.5.2-.1.6-.1 1.2-.2s1.1-.2 1.6-.4c.5-.3.8-.6 1-1.1.2-.4.2-.9.1-1.4-.1-.5-.5-1-.8-1.5-.3-.4-.7-.8-.7-1s0-.4.1-.6c.1-.2.2-.3.4-.4.2-.1.7 0 1.2.1s1.2.1 1.7 0 .9-.4 1.2-.8c.3-.4.4-.8.4-1.4s-.2-1.1-.5-1.6c-.2-.5-.5-1-.5-1.2s.1-.4.2-.5c.1-.1.3-.2.5-.2s.6.2 1.2.5c.5.2 1.1.5 1.6.5s1-.2 1.4-.4c.4-.3.6-.7.8-1.2.1-.5.1-1.1 0-1.7-.1-.5-.2-1-.1-1.2.1-.2.2-.3.4-.4.2-.1.4-.1.6-.1s.6.4 1 .7.9.7 1.5.8c.5.1 1 .1 1.4-.1.4-.2.8-.5 1.1-1s.4-1.1.4-1.6c.1-.5.1-1 .2-1.2.1-.2.3-.3.5-.3s.4 0 .6.1c.2.1.4.5.8.9.3.4.7.9 1.2 1.2s.9.4 1.4.3c.5-.1.9-.3 1.3-.6.4-.4.6-.9.8-1.4s.4-.9.5-1.1c.2-.1.3-.2.5-.2s.4.1.5.2c.2.1.3.6.5 1.1s.5 1.1.8 1.4c.4.4.8.6 1.3.6.5.1.9 0 1.4-.3s.8-.7 1.2-1.2c.3-.4.6-.8.8-.9.2-.1.4-.1.6-.1.2 0 .3.2.5.3.1.2.1.6.2 1.2.1.5.2 1.1.4 1.6.3.5.6.8 1.1 1 .4.2.9.2 1.4.1.5-.1 1-.5 1.5-.8.4-.3.8-.7 1-.7s.4 0 .6.1.3.2.4.4 0 .7-.1 1.2-.1 1.2 0 1.7.4.9.8 1.2.8.4 1.4.4c.5 0 1.1-.2 1.6-.5.5-.2 1-.5 1.2-.5s.4.1.5.2c.1.1.2.3.2.5s-.2.6-.5 1.2c-.2.5-.5 1.1-.5 1.6s.2 1 .4 1.4c.3.4.7.6 1.2.8.5.1 1.1.1 1.7 0 .5-.1 1-.2 1.2-.1.2.1.3.2.4.4s.1.4.1.6c0 .2-.4.6-.7 1-.3.4-.7.9-.8 1.5-.1.5-.1 1 .1 1.4s.5.8 1 1.1 1.1.4 1.6.4c.5.1 1 .1 1.2.2.2.1.3.3.3.5s0 .4-.1.6-.5.4-.9.8c-.4.3-.9.7-1.2 1.2-.3.5-.4.9-.3 1.4s.3.9.6 1.3c.4.4.9.6 1.4.8s.9.4 1.1.5c.1.2.2.3.2.5s-.1.4-.2.5c-.1.2-.6.3-1.1.5s-1.1.5-1.4.8c-.4.4-.6.8-.6 1.3-.1.5 0 .9.3 1.4s.7.8 1.2 1.2c.4.3.8.6.9.8.1.2.1.4.1.6s-.2.3-.3.5c-.2.1-.6.1-1.2.2-.5.1-1.1.2-1.6.4-.5.3-.8.6-1 1.1-.2.4-.2.9-.1 1.4s.5 1 .8 1.5c.3.4.7.8.7 1s0 .4-.1.6-.2.3-.4.4-.7 0-1.2-.1-1.2-.2-1.7 0c-.5.1-.9.4-1.2.8-.3.4-.4.8-.4 1.4 0 .5.2 1.1.5 1.6.2.5.5 1 .5 1.2s-.1.4-.2.5-.3.2-.5.2-.6-.2-1.2-.5c-.5-.2-1.1-.5-1.6-.5s-1 .2-1.4.4c-.4.3-.6.7-.8 1.2-.1.5-.1 1.1 0 1.7.1.5.2 1 .1 1.2s-.2.3-.4.4c-.2.1-.4.1-.6.1s-.6-.4-1-.7-.9-.7-1.5-.8c-.5-.1-1-.1-1.4.1s-.8.5-1.1 1c-.3.5-.4 1.1-.4 1.6-.1.5-.1 1-.2 1.2-.1.2-.3.3-.5.3s-.4 0-.6-.1c-.2-.1-.4-.5-.8-.9-.3-.4-.7-.9-1.2-1.2-.5-.3-.9-.4-1.4-.3s-.9.3-1.3.6c-.4.4-.6.9-.8 1.4-.2.7-.4 1.1-.5 1.2"/><path fill="#FFF" d="M46.4 77.8c-.1-.2-.2-.3-.3-.5s-.1-.4-.1-.5c0-.2 0-.4.1-.5V76c0-.1.1-.2.1-.2.2-.3.4-.6.8-.8 0 0 .1 0 .1-.1h.2c.1 0 .1-.1.2-.1.1-.1.3-.1.4-.2.2-.1.4-.1.5-.1h.5c.3 0 .7 0 1 .1.2 0 .3.1.5.1h.4c.4 0 .7-.1 1-.2.1 0 .2-.1.3-.2.2-.1.4-.3.6-.4.2-.2.4-.3.5-.5.1-.3.2-.4 0-.4-.1 0-.4 0-.8.1h-.1c-.3 0-.6.1-.9.1-.3 0-.7.1-1 .1h-.6c-.2 0-.4-.1-.6-.3-.2-.1-.3-.3-.4-.5-.1-.1-.1-.2-.1-.3 0-.1-.1-.2-.1-.2-.1-.3-.2-.6-.3-.8-.1-.3-.2-.5-.4-.8-.1-.2-.3-.5-.5-.6l-.6-.3c-.2 0-.5 0-.7.1H46h-.1l-.1.1c-.1.1-.2.2-.2.3-.1.2-.2.5-.1.7 0 .1 0 .3.1.4l.1.1c.2.2.4.3.6.2.3 0 .5-.1.7-.2.2-.2.3-.4.4-.6 0-.1.2-.2.3-.1.1 0 .2.1.1.2 0 .2-.1.3-.2.5s-.2.3-.3.4c-.3.2-.6.3-1 .4-.2 0-.4 0-.5-.1-.2-.1-.3-.2-.5-.3l-.2-.2v-.1-.2c-.1-.1-.1-.3-.2-.5-.1-.3 0-.7.2-1 .1-.2.2-.3.3-.4l.2-.2.1-.1s.1 0 .1-.1c.3-.2.7-.3 1-.2.4 0 .7.1 1 .3.3.2.5.5.7.8s.3.6.5.8c.1.3.3.6.4.8.1.2.1.2.2.3.1.1.1.1.2.1s.1.1.2.1.2.1.3.1c.2 0 .5 0 .7-.2.1-.1.3-.2.4-.3 0 0 .3-.2.5-.5-.5-.9-.6-1.9-.2-2.8-.2-.3-.4-.5-.6-.8-.2-.3-.4-.7-.5-1-.1-.2-.1-.4-.1-.6V65c0-.1 0-.2.1-.3v-.1l.1-.1c.1-.1.1-.3.2-.4.1-.3.2-.6.2-.9v-.3s0-.1-.1-.1c0-.1-.1-.1-.1-.2-.3-.3-.7-.6-1.1-.6-.4 0-.8.1-1 .6 0 0 0 .1-.1.2v.5c0 .2.1.4.2.5.2.1.4.2.6.2.2 0 .5-.1.7-.2h.2c.1.1.1.2 0 .2-.1.1-.3.2-.4.3-.1.1-.3.1-.5.1-.3 0-.7 0-1-.2-.2-.1-.3-.2-.4-.4-.1-.2-.1-.4-.1-.6v-.7c0-.1 0-.2.1-.2.1-.3.3-.6.7-.8.3-.2.7-.3 1-.3s.7.1 1 .3.6.4.8.6c0 .1.1.1.1.2.1.1.1.2.2.3.1.2.1.4.1.6 0 .4-.1.7-.2 1.1 0 .2-.1.3-.1.5V65.1c0 .2.1.4.2.6.1.2.3.4.5.6.2.1.3.3.5.4 1.2-.8 2.9-.6 4.1.4.2-.1.4-.3.6-.5.1-.2.2-.3.3-.5s.2-.3.2-.5c.1-.2.1-.3.1-.5s-.1-.3-.1-.4-.1-.1-.1-.2l-.1-.1c-.1-.1-.3-.3-.5-.4-.3-.3-.6-.5-1-.8-.2-.1-.4-.3-.5-.5-.1-.1-.2-.2-.2-.4 0-.1-.1-.1-.1-.2v-.2c0-.3 0-.5.1-.8 0-.1.1-.2.2-.4 0-.1.1-.1.1-.2 0 0 0-.1.1-.1l.1-.1.1-.1.1-.1c.1-.1.2-.2.3-.2.2-.1.5-.2.8-.2s.5.1.8.2c.1.1.2.1.3.2.1.1.2.2.3.2.2.2.3.4.4.7 0 .3 0 .5-.1.8-.1.2-.3.4-.5.6-.2.2-.4.3-.7.3-.1 0-.2-.1-.2-.2s.1-.2.2-.2c.2 0 .3-.1.5-.2.1-.1.2-.3.3-.5s.1-.4.1-.5c0-.2-.1-.3-.2-.4l-.2-.2c-.1-.1-.2-.1-.3-.1-.2-.1-.3-.1-.5-.1s-.3.1-.5.2c-.1 0-.1.1-.2.2l-.1.1v.2s0 .1-.1.1c0 .1-.1.2-.1.3 0 .2-.1.3 0 .5v.1c0 .1.1.1.1.2.1.1.3.2.5.4.4.2.7.5 1.1.8.2.1.4.3.5.4l.1.1.1.1.3.3c.2.2.3.5.3.8v.8c0 .3-.1.5-.2.7-.1.2-.2.5-.3.7l-.3.6c0 .1-.5 1.2.6.4l.2-.2c.3-.3.5-.6.8-.9.2-.3.4-.6.5-1 0-.1.1-.2.1-.3l.1-.3-.2-.6.1-.6c0-.2.1-.4.2-.6.1-.2.2-.5.3-.6s.1-.2.2-.3l.3-.3c.2-.1.4-.3.6-.3.1 0 .2-.1.3-.1s.2-.1.3-.1h.4c.1 0 .2.1.4.1.2.1.4.3.6.5s.3.4.4.7c0 .1.1.2.1.4v.4c0 .3-.2.5-.3.7-.2.2-.4.3-.7.4-.2.1-.5.1-.8 0-.2 0-.5-.1-.7-.3-.1-.1-.1-.2 0-.3.1-.1.2-.1.3 0 .1.1.3.2.5.2h.6c.2-.1.4-.1.5-.3.1-.1.2-.3.2-.5v-.3s0-.2-.1-.3c-.1-.2-.2-.4-.3-.5-.1-.1-.3-.3-.5-.3-.1 0-.2-.1-.3-.1H63.3c-.1 0-.2 0-.3.1-.1 0-.2.1-.3.1-.2.1-.3.2-.5.3l-.2.2c-.1.1-.1.2-.2.2-.1.2-.2.3-.2.5-.1.4-.1.8-.1 1.2V66.5c-.1.5-.2 1-.4 1.4s-.4.8-.7 1.2c-.3.4-.5.8-.8 1.1l-.1.1c.2-.1.5-.3.8-.4.2-.1.5-.2.7-.3.3-.1.5-.1.8-.2.3 0 .6 0 1 .2.2.1.3.2.4.3.1.1.2.3.3.4 0 0 0 .1.1.1l.1.1.2.3.3.6c.2.4.4.8.6 1.1.1.2.2.3.3.4.1.1.1.1.2.1h.7c.1 0 .2 0 .3-.1H66.6l.1-.1.2-.2s.2-.3.2-.5v-.5s-.1-.2-.1-.3c0-.1-.1-.2-.1-.2-.1-.1-.2-.3-.4-.3-.2-.1-.4-.1-.5 0-.2 0-.4.1-.5.3-.1.1-.2.3-.3.4 0 0 0 .1-.1.1-.1.1-.2.1-.3 0-.1-.1-.1-.2 0-.2.1-.2.2-.4.4-.6.2-.2.4-.3.6-.4s.5-.1.8 0 .5.2.6.4c.1.1.1.2.2.3.1.1.1.2.1.3.1.2.1.5.1.7 0 .3-.1.5-.3.7l-.3.3-.1.1s-.1 0-.1.1H66.5c-.1 0-.1.1-.2.1s-.2.1-.3.1c-.2.1-.5.1-.8 0H65s-.1 0-.2-.1-.2-.1-.3-.2c-.2-.2-.4-.3-.5-.5s-.3-.3-.4-.5l-.4-.5-.4-.5.2-.1-.1-.1-.1-.1c-.1-.1-.2-.1-.2-.1-.1 0-.2 0-.3.1-.2.1-.5.3-.8.5s-.6.5-.8.8l-.1.1c.3.3.6.5.9.9.2.2.4.4.5.6.2.2.3.5.4.8.1.3.1.7.1 1 0 .2-.1.3-.2.5v.2l-.1.1c-.2.4-.4.7-.5 1.1-.2.4-.3.8-.3 1.1v.6c0 .1.1.1.2.2.3.2.6.4 1 .5h.2c.1 0 .2 0 .2-.1.2-.1.3-.1.4-.3.1-.1.2-.3.3-.4v-.2-.2c0-.2 0-.3-.1-.4s-.2-.2-.4-.3c-.2-.1-.3-.1-.5-.1s-.3 0-.5.1c-.1.1-.2 0-.3-.1s0-.2.1-.3h.1c.2-.1.4-.1.7-.1.2 0 .5 0 .7.1s.4.2.6.4c.2.2.2.5.2.7 0 .1 0 .2-.1.4 0 .1 0 .1-.1.2v.2c-.1.2-.2.4-.4.6s-.4.3-.6.4c-.1 0-.2.1-.3.1H62.5h-.1c-.1 0-.2-.1-.3-.1s-.2-.1-.3-.1c-.2-.1-.4-.2-.6-.4l-.3-.3s0-.1-.1-.1c0 0 0-.1-.1-.1 0-.1-.1-.1-.1-.2-.1-.3-.2-.5-.2-.8v-.7s.1-.5.1-.7c.1-.4.7-2.3-.3-2.5-.1 0-2.2-.6-4.9 1.9-.9.8.6 2 .6 2 .3.3.6.6.9 1 .2.2.3.4.4.6.1.1.1.3.1.4v.4c0 .3-.1.5-.3.7-.1.1-.1.2-.2.3l-.1.1-.1.1-.1.1-.1.1s-.1 0-.1.1c-.1 0-.1.1-.2.1-.1.1-.2.1-.4.1-.2.1-.5.1-.8 0s-.5-.2-.7-.3c-.1-.1-.2-.2-.3-.2-.1-.1-.2-.2-.2-.3-.1-.2-.2-.5-.2-.7 0-.3.1-.5.3-.7.1-.2.3-.4.6-.5.2-.1.5-.2.7-.2.1 0 .1 0 .2.1s.1.2 0 .3c-.1.1-.1.1-.2 0-.2 0-.3 0-.5.1s-.3.2-.4.4c-.1.2-.2.3-.2.5s0 .3.1.5c0 .1.1.2.2.2l.2.2c.2.1.3.2.5.2s.4 0 .5-.1c.1 0 .2-.1.2-.1l.1-.1h.1v-.1l.1-.1c.1-.1.1-.2.1-.2.1-.2.1-.3.1-.5v-.2c0-.1 0-.1-.1-.2s-.2-.3-.4-.4c-.3-.3-.6-.5-1-.8l-.5-.4-.3-.2-.1-.1-.1-.1c-.1-.1-.2-.3-.3-.4-.1-.2-.1-.3-.2-.5-.1-.3 0-.6 0-.9.1-.5.3-1 .5-1.4l.3-.6s-1.9.9-2.6 1h-.2c-.4.1-.7.1-1.1 0h-.5c-.1 0-.3-.1-.4-.1-.3-.1-.5-.1-.8-.1H48c-.1 0-.2 0-.3.1-.1 0-.2.1-.4.1-.1 0-.2.1-.2.1H47c-.2.1-.4.3-.5.5 0 .1-.1.1-.1.2v.1c0 .1 0 .2-.1.4 0 .2 0 .5.2.6.1.2.3.3.5.4s.5.2.7.1c.2 0 .4-.1.5-.3.3-.4.3-1 0-1.4-.1-.1-.1-.2 0-.3.1-.1.2-.1.3 0 .2.3.4.6.4.9s0 .7-.2 1c-.1.2-.2.3-.4.4s-.3.2-.5.2c-.4.1-.7 0-1-.1.2-.3-.2-.5-.4-.8"/><path fill="#C1D82F" d="M70 56.9c-3.7-3.7-8.7-5.8-14-5.8s-10.3 2.1-14 5.8-5.8 8.7-5.8 14 2.1 10.3 5.8 14 8.7 5.8 14 5.8 10.3-2.1 14-5.8c7.7-7.7 7.7-20.2 0-28m-.5 27.6c-1.8 1.8-4 3.2-6.3 4.2-2.3.9-4.7 1.4-7.2 1.4s-4.9-.5-7.2-1.4c-2.4-1-4.5-2.4-6.3-4.2C35 77 35 64.9 42.4 57.4c1.8-1.8 4-3.2 6.3-4.2 2.3-.9 4.7-1.4 7.2-1.4s4.9.5 7.2 1.4c2.4 1 4.5 2.4 6.3 4.2 1.8 1.8 3.2 4 4.2 6.3.9 2.3 1.4 4.7 1.4 7.2s-.5 4.9-1.4 7.2c-.9 2.4-2.3 4.6-4.1 6.4"/><path fill="#C1D82F" d="M66.2 60.7c-2.7-2.7-6.4-4.2-10.2-4.2-3.9 0-7.5 1.5-10.2 4.2s-4.2 6.4-4.2 10.2c0 3.9 1.5 7.5 4.2 10.2s6.4 4.2 10.2 4.2 7.5-1.5 10.2-4.2c2.7-2.7 4.2-6.4 4.2-10.2 0-3.8-1.5-7.4-4.2-10.2m-.5 20c-2.6 2.6-6.1 4-9.7 4-3.7 0-7.1-1.4-9.7-4-2.6-2.6-4-6.1-4-9.7 0-3.7 1.4-7.1 4-9.7 2.6-2.6 6.1-4 9.7-4 3.7 0 7.1 1.4 9.7 4 2.6 2.6 4 6.1 4 9.7s-1.4 7.1-4 9.7"/><path fill="#FFF" d="M42.7 82.9c-.1-.2-.3-.3-.4-.5L44 81c.1.1.2.3.4.4l-1.7 1.5zm1.3 1.3l1.5-1.6c.1.1.3.2.4.4l-1.4 1.7-.5-.5m-2.9-3.3c-.1-.2-.2-.4-.3-.5l1.9-1.2c.1.2.2.3.3.5l-1.9 1.2zm5 4.9l1.2-1.8c.2.1.3.2.5.3l-1.2 1.9c-.2-.1-.3-.2-.5-.4m-6.3-7.1l-.3-.6 2-.9c.1.2.2.3.2.5l-1.9 1zm8.5 8.4l.9-2c.2.1.3.2.5.2l-.9 2c-.1 0-.3-.1-.5-.2m-9.4-10.8c-.1-.2-.1-.4-.2-.6l2.1-.6c.1.2.1.4.2.5l-2.1.7zM50.7 88l.7-2.1c.2.1.4.1.5.2l-.6 2.1c-.2-.1-.4-.1-.6-.2M38.3 73.8c0-.2-.1-.4-.1-.6l2.2-.3c0 .2.1.4.1.6l-2.2.3zm14.9 14.8l.3-2.2c.2 0 .4.1.6.1l-.3 2.2c-.2 0-.4-.1-.6-.1M38.1 71.3v-.6h2.2v.6h-2.2zm17.6 17.5v-2.2h.6v2.2h-.6M38.2 68.7c0-.2.1-.4.1-.6l2.2.3c0 .2-.1.4-.1.6l-2.2-.3zm20 20l-.2-2.2c.2 0 .4 0 .6-.1l.4 2.2c-.3 0-.6 0-.8.1M38.7 66.2c.1-.2.1-.4.2-.6l2.1.7c-.1.2-.1.4-.2.5l-2.1-.6zm22 22l-.5-2.2c.2 0 .4-.1.5-.2l.7 2.1c-.3.2-.5.2-.7.3M39.6 63.8l.3-.6 2 1c-.1.2-.2.3-.2.5l-2.1-.9zm23.5 23.5l-.9-2c.2-.1.3-.2.5-.2l1 2c-.2.1-.4.1-.6.2M40.8 61.5c.1-.2.2-.4.3-.5l1.8 1.2c-.1.2-.2.3-.3.5l-1.8-1.2zm24.6 24.6l-1.2-1.9c.2-.1.3-.2.5-.3l1.2 1.8c-.1.2-.3.3-.5.4M42.2 59.5c.1-.2.3-.3.4-.5l1.6 1.5c-.1.1-.2.3-.4.4l-.6-.6-1-.8zm25.3 25.1l-1.4-1.7c.1-.1.3-.2.4-.4l1.5 1.6c-.2.3-.4.4-.5.5m-22-25.3L44 57.6c.2-.1.3-.3.5-.4l1.4 1.7-.4.4m22.2 22.1c.1-.1.2-.3.3-.4l1.7 1.4c-.1.2-.3.3-.4.5l-1.6-1.5zM47.3 57.9L46 56.1c.2-.1.4-.2.5-.3l1.2 1.9c-.1 0-.3.1-.4.2M69 79.6c.1-.2.2-.3.3-.5l1.9 1.2c-.1.2-.2.4-.3.5L69 79.6zM49.2 56.8l-1-2 .6-.3.9 2c-.2.1-.3.2-.5.3m20.9 20.9c.1-.2.2-.3.2-.5l2 .9-.3.6-1.9-1zM51.3 56l-.7-2.1c.2-.1.4-.1.6-.2l.6 2.1c-.2.1-.3.1-.5.2m21.9 19.6c-.1.2-.1.4-.2.6l-2.1-.6c.1-.2.1-.4.2-.5l2.1.5M53.5 55.5l-.4-2.2c.2 0 .4-.1.6-.1l.3 2.2c-.2 0-.4 0-.5.1m17.9 17.9c0-.2.1-.4.1-.6l2.2.3c0 .2-.1.4-.1.6l-2.2-.3zM55.7 55.3v-2.2h.6v2.2h-.6m15.9 15.9v-.6h2.2v.6h-2.2zM57.9 55.4l.3-2.2c.2 0 .4.1.6.1l-.3 2.2c-.2-.1-.4-.1-.6-.1M71.5 69c0-.2 0-.4-.1-.6l2.2-.4c0 .2.1.4.1.6l-2.2.4zM60.1 55.8l.6-2.1c.2.1.4.1.6.2l-.7 2.1c-.1-.1-.3-.1-.5-.2m11 11c0-.2-.1-.4-.2-.5l2.1-.7c.1.2.1.4.2.6l-2.1.6zm-8.9-10.2l.9-2 .6.3-.9 2c-.2-.2-.4-.3-.6-.3m8.1 8.1c-.1-.2-.2-.3-.2-.5l2-1 .3.6-2.1.9zm-6.1-7.1l1.2-1.9c.2.1.4.2.5.3l-1.2 1.8c-.2 0-.3-.1-.5-.2m5.1 5.1c-.1-.2-.2-.3-.3-.5l1.8-1.2c.1.2.2.4.3.5l-1.8 1.2zM66 58.9l.7-.9.7-.8c.2.1.3.3.5.4l-1.5 1.6c-.1-.1-.2-.2-.4-.3m2 2c-.1-.1-.2-.3-.4-.4l1.6-1.5c.1.2.3.3.4.5L68 60.9z"/><path fill="#C1D82F" d="M54.7 93.3c0-.7.6-1.3 1.3-1.3s1.3.6 1.3 1.3c0 .7-.6 1.3-1.3 1.3-.7 0-1.3-.6-1.3-1.3m-15.4-5.6c-.6-.6-.6-1.4 0-1.9.5-.5 1.4-.5 1.9 0s.5 1.4 0 1.9c-.3.3-.6.4-.9.4-.4 0-.8-.1-1-.4m31.6 0c-.5-.5-.5-1.4 0-1.9s1.4-.5 1.9 0 .5 1.4 0 1.9c-.3.3-.6.4-.9.4-.5 0-.8-.2-1-.4M77 71c0-.7.6-1.3 1.3-1.3.7 0 1.3.6 1.3 1.3 0 .7-.6 1.3-1.3 1.3S77 71.7 77 71m-43.3 1.3c-.7 0-1.3-.6-1.3-1.3 0-.7.6-1.3 1.3-1.3s1.3.6 1.3 1.3c0 .7-.6 1.3-1.3 1.3zm37.1-16.2c-.5-.5-.5-1.4 0-1.9s1.4-.5 1.9 0 .5 1.4 0 1.9c-.3.3-.6.4-.9.4-.4 0-.7-.1-1-.4m-31.5 0c-.5-.5-.5-1.4 0-1.9s1.4-.5 1.9 0 .5 1.4 0 1.9c-.3.3-.6.4-.9.4-.4 0-.8-.1-1-.4m15.4-7.5c0-.7.6-1.3 1.3-1.3s1.3.6 1.3 1.3-.6 1.3-1.3 1.3c-.7.1-1.3-.5-1.3-1.3"/><path d="M93.4 83l-9 15.6h18l-9-15.6zm0 2.8l6.6 11.4H86.8l6.6-11.4zM18.5 83l-9 15.6h18l-9-15.6zm0 2.8l6.6 11.4H11.9l6.6-11.4zM56 17.9l-9 15.6h18l-9-15.6zm0 2.8l6.6 11.4H49.4L56 20.7zM111.5 121.4h-.8v-.2h1.8v.2h-.7v2.1h-.3M114.9 122.5v-1l-.3.9-.4 1.2h-.2l-.4-1.1-.3-.9v1.1l-.1 1h-.3l.2-2.4h.4l.4 1.2c.1.3.2.6.2.8.1-.2.1-.5.3-.8l.4-1.2h.4l.1 2.4h-.3l-.1-1.2z"/><path fill="none" d="M115.6 145.4V0H0v145.4"/></svg>